<svg xmlns="http://www.w3.org/2000/svg" width="24" height="24" viewBox="0 0 24 24" fill="none">
<path fill-rule="evenodd" clip-rule="evenodd" d="M9.35193 3C9.35193 2.44772 8.90421 2 8.35193 2C7.79964 2 7.35193 2.44772 7.35193 3V3.69809C7.04191 3.75819 6.73721 3.84886 6.44242 3.9696C5.61838 4.30709 4.90395 4.86626 4.37836 5.58507C3.85278 6.30389 3.53659 7.15425 3.46488 8.04182C3.39316 8.9294 3.56873 9.81949 3.97209 10.6134C4.37545 11.4072 4.99085 12.0738 5.75001 12.5393C6.2445 12.8424 6.7874 13.0525 7.35193 13.1619V17.6838C7.13065 17.5892 6.92447 17.46 6.74146 17.3003C6.41987 17.0196 6.18234 16.6553 6.05524 16.2478C5.84968 15.5888 5.14878 15.2211 4.48974 15.4267C3.8307 15.6323 3.46308 16.3332 3.66864 16.9922C3.93329 17.8407 4.42788 18.5993 5.09751 19.1838C5.739 19.7437 6.51709 20.1228 7.35193 20.2834V21.05C7.35193 21.6023 7.79964 22.05 8.35193 22.05C8.90421 22.05 9.35193 21.6023 9.35193 21.05V20.2445C9.59347 20.1882 9.8312 20.1131 10.0629 20.0195C10.887 19.6864 11.6026 19.1315 12.1305 18.4164C12.6583 17.7013 12.9777 16.8539 13.0531 15.9683C13.1285 15.0827 12.9571 14.1934 12.5579 13.3993C12.1586 12.6052 11.5471 11.9373 10.7913 11.4696C10.3449 11.1934 9.85848 10.9935 9.35193 10.8755V6.37814C9.50678 6.45985 9.65259 6.5592 9.78628 6.67474C10.1106 6.95501 10.3508 7.31963 10.4805 7.72815C10.6894 8.38616 11.3921 8.75028 12.0501 8.54143C12.7081 8.33258 13.0722 7.62986 12.8634 6.97185C12.594 6.12311 12.0947 5.36558 11.421 4.7833C10.826 4.26898 10.1153 3.90915 9.35193 3.73318V3ZM7.35193 6.29905C6.97133 6.46288 6.64131 6.72577 6.39644 7.06066C6.14346 7.40664 5.99127 7.81595 5.95676 8.24316C5.92224 8.67038 6.00674 9.0988 6.20089 9.48092C6.39504 9.86303 6.69125 10.1839 7.05666 10.4079C7.15164 10.4661 7.25034 10.5172 7.35193 10.561V6.29905ZM9.35193 13.5241V17.5959C9.65277 17.4346 9.91509 17.2081 10.119 16.9318C10.3725 16.5883 10.5259 16.1814 10.5621 15.7561C10.5984 15.3307 10.516 14.9037 10.3243 14.5223C10.1325 14.141 9.83888 13.8202 9.47589 13.5956C9.43524 13.5704 9.3939 13.5466 9.35193 13.5241Z" 
fill="black">
</path>
<path d="M17.252 8.67999C17.9423 8.67999 18.502 9.23964 18.502 9.92999V10.73H19.3019C19.9923 10.73 20.5519 11.2896 20.5519 11.98C20.5519 12.6704 19.9923 13.23 19.3019 13.23H18.502V14.03C18.502 14.7203 17.9423 15.28 17.252 15.28C16.5616 15.28 16.002 14.7203 16.002 14.03V13.23H15.2119C14.5216 13.23 13.9619 12.6704 13.9619 11.98C13.9619 11.2896 14.5216 10.73 15.2119 10.73H16.002V9.92999C16.002 9.23964 16.5616 8.67999 17.252 8.67999Z" 
fill="black">
</path></svg>